<svg version="1" xmlns="http://www.w3.org/2000/svg" viewBox="0 0 48 48" enable-background="new 0 0 48 48">
    <g fill="#CE9D77">
        <circle cx="31" cy="19" r="2"/>
        <circle cx="13" cy="19" r="2"/>
        <polygon points="22,37 17,31 17,25 27,25 27,31"/>
    </g>
    <path fill="#F0DBCB" d="M31,13c0-7.6-18-5-18,0c0,1.1,0,5.9,0,7c0,5,4,9,9,9s9-4,9-9C31,18.9,31,14.1,31,13z"/>
    <g fill="#red">
        <circle cx="26" cy="19" r="1"/>
        <circle cx="18" cy="19" r="1"/>
        <path d="M22,4c-6.1,0-10,4.9-10,11c0,0.8,0,2.3,0,2.3l2,1.7v-5l12-4l4,4v5l2-1.7c0,0,0-1.5,0-2.3c0-4-1-8-6-9l-1-2 H22z"/>
        <path d="M27,31L27,31c0,0-2,1-5,1s-5-1-5-1S6,33,6,44h32C38,33,27,31,27,31z"/>
    </g>
</svg>
